<?xml version="1.0" standalone="no"?>
<!DOCTYPE svg PUBLIC "-//W3C//DTD SVG 20010904//EN"
 "http://www.w3.org/TR/2001/REC-SVG-20010904/DTD/svg10.dtd">
<svg version="1.0" xmlns="http://www.w3.org/2000/svg"
 width="300.000000pt" height="300.000000pt" viewBox="0 0 300.000000 300.000000"
 preserveAspectRatio="xMidYMid meet">
<metadata>
Created by potrace 1.11, written by Peter Selinger 2001-2013
</metadata>
<g transform="translate(0.000000,300.000000) scale(0.100000,-0.100000)"
fill="#000000" stroke="none">
<path d="M737 2321 c-43 -30 -67 -84 -67 -146 0 -56 11 -84 50 -129 l32 -36
-28 -1 c-16 -1 -88 -2 -160 -3 -107 -1 -133 -4 -147 -18 -15 -14 -17 -41 -16
-195 1 -98 1 -184 0 -191 -1 -9 -12 -4 -34 12 -51 39 -111 56 -196 56 -91 0
-134 -21 -158 -77 -35 -85 10 -198 105 -264 56 -40 165 -79 225 -81 20 -1 37
-3 37 -6 0 -2 -9 -44 -21 -93 -11 -48 -19 -98 -17 -110 4 -31 67 -44 219 -44
l126 0 -5 -80 c-6 -103 10 -138 75 -167 79 -35 264 -21 312 23 42 40 52 102
26 164 l-14 35 87 -5 c48 -3 103 -7 122 -9 225 -24 296 -23 325 4 17 16 37 22
72 23 66 1 231 -12 282 -22 2 -1 -1 -7 -7 -14 -18 -22 -9 -167 14 -212 28 -57
88 -86 178 -83 126 3 218 26 264 67 34 30 60 83 57 116 -1 11 -2 30 -3 42 -1
12 -13 34 -26 50 l-24 29 56 -3 c91 -5 183 -23 232 -44 51 -22 106 -29 103
-14 0 6 -9 67 -17 137 -9 69 -23 150 -31 180 -7 29 -11 55 -9 57 2 3 25 7 50
9 64 5 109 26 139 66 54 71 69 180 38 275 -39 123 -200 195 -281 126 l-30 -26
-6 53 c-3 29 -8 91 -11 137 -7 113 -18 125 -100 117 -33 -3 -71 -8 -85 -11
-14 -3 -56 -8 -95 -10 -38 -3 -97 -8 -130 -11 -33 -4 -68 -6 -77 -6 -15 1 -15
-3 -6 -26 7 -15 22 -38 34 -52 32 -38 51 -72 58 -106 6 -28 4 -32 -41 -56 -51
-28 -113 -31 -163 -10 -75 33 -79 71 -15 136 54 54 65 97 29 120 -25 17 -48
22 -139 31 -118 11 -161 17 -230 31 -38 8 -75 14 -81 14 -21 0 -45 -26 -58
-64 l-13 -39 -84 2 c-83 2 -147 7 -204 16 -44 6 -168 18 -185 17 -12 0 -14 10
-12 53 6 82 -20 154 -72 208 -87 87 -178 109 -249 58z"/>
</g>
</svg>
