<?xml version="1.0" encoding="UTF-8" standalone="no"?>
<!-- Created with Inkscape (http://www.inkscape.org/) -->

<svg
   xmlns:dc="http://purl.org/dc/elements/1.1/"
   xmlns:cc="http://creativecommons.org/ns#"
   xmlns:rdf="http://www.w3.org/1999/02/22-rdf-syntax-ns#"
   xmlns:svg="http://www.w3.org/2000/svg"
   xmlns="http://www.w3.org/2000/svg"
   xmlns:sodipodi="http://sodipodi.sourceforge.net/DTD/sodipodi-0.dtd"
   xmlns:inkscape="http://www.inkscape.org/namespaces/inkscape"
   width="210mm"
   height="297mm"
   viewBox="0 0 210 297"
   version="1.1"
   id="svg8"
   inkscape:version="0.92.4 (5da689c313, 2019-01-14)"
   sodipodi:docname="assemblyday.svg">
  <defs
     id="defs2" />
  <sodipodi:namedview
     id="base"
     pagecolor="#ffffff"
     bordercolor="#666666"
     borderopacity="1.0"
     inkscape:pageopacity="0.0"
     inkscape:pageshadow="2"
     inkscape:zoom="0.35"
     inkscape:cx="-1634.0713"
     inkscape:cy="668.34379"
     inkscape:document-units="mm"
     inkscape:current-layer="layer1"
     showgrid="false"
     inkscape:snap-text-baseline="true"
     inkscape:window-width="1920"
     inkscape:window-height="1016"
     inkscape:window-x="0"
     inkscape:window-y="27"
     inkscape:window-maximized="1" />
  <metadata
     id="metadata5">
    <rdf:RDF>
      <cc:Work
         rdf:about="">
        <dc:format>image/svg+xml</dc:format>
        <dc:type
           rdf:resource="http://purl.org/dc/dcmitype/StillImage" />
        <dc:title />
      </cc:Work>
    </rdf:RDF>
  </metadata>
  <g
     inkscape:label="Layer 1"
     inkscape:groupmode="layer"
     id="layer1">
    <path
       style="fill:#0066ff;fill-opacity:1;stroke-width:0.85838413"
       d="m -253.07088,140.2741 v -27.7797 l 10.47798,0.50485 c 19.14213,0.9223 27.35606,3.04927 33.59035,8.69808 4.44884,4.03105 5.7011,7.2592 6.32719,16.31058 0.89848,12.98963 -2.78933,20.75998 -12.00361,25.29209 -5.5206,2.71534 -10.95201,3.58722 -26.45188,4.24617 l -11.94003,0.50762 z"
       id="path3920"
       inkscape:connector-curvature="0" />
    <path
       style="fill:#ffcc00;stroke-width:23.8;stroke:#ffcc00;stroke-opacity:1;stroke-miterlimit:4;stroke-dasharray:none;fill-opacity:1;stroke-linejoin:round;paint-order:stroke markers fill;opacity:1"
       d="m -486.06561,260.32487 c -8.52086,-3.50352 -9.56657,-5.48178 -9.56657,-18.09798 0,-5.19495 0.35857,-10.22628 0.79687,-11.18073 0.43827,-0.95445 3.85821,-3.884 7.59987,-6.51012 4.63864,-3.25566 6.72858,-5.17851 6.569,-6.04378 -0.39011,-2.11536 -6.58883,-4.52432 -14.96574,-5.81606 -10.6792,-1.64676 -48.41576,-2.41785 -57.69105,-1.17884 -3.68317,0.49201 -6.79595,0.79174 -6.91726,0.66607 -0.12134,-0.12567 0.94454,-4.47802 2.36863,-9.67189 3.39097,-12.36758 7.84568,-33.15156 7.84568,-36.605 0,-3.37761 -1.13744,-3.90094 -5.86886,-2.7003 -5.43074,1.3781 -16.59808,1.05915 -23.93619,-0.68365 -13.42933,-3.18946 -27.15679,-10.00041 -33.70443,-16.7226 -11.95366,-12.27238 -14.23361,-30.84324 -4.48557,-36.53641 2.2221,-1.29776 4.26645,-1.58693 12.89461,-1.82388 5.98922,-0.16448 11.99797,0.0805 14.44739,0.58897 4.71973,0.97982 13.75081,5.08811 17.54255,7.98021 2.96986,2.26523 7.37462,8.44826 11.43738,16.05488 1.60897,3.01245 3.20353,5.47718 3.54343,5.47718 0.33994,0 2.61023,-1.00565 5.0451,-2.23477 l 4.42705,-2.23478 0.57093,-15.70769 c 0.31402,-8.63923 0.34654,-28.751434 0.0723,-44.693787 l -0.49858,-28.9861 4.73361,0.483933 c 8.08148,0.826197 38.23561,0.657855 48.55098,-0.271047 10.23218,-0.921413 14.53829,-2.324337 19.65351,-6.403064 l 2.15358,-1.717168 -9.92808,-10.360972 c -12.63645,-13.187479 -14.14539,-15.974413 -14.14539,-26.1259675 0,-7.9572063 0.70474,-9.9365065 5.38087,-15.1124315 7.3426,-8.127371 20.04977,-5.658938 32.29008,6.2725143 6.64177,6.4741983 9.67038,11.9957345 11.48096,20.9313027 1.5118,7.461053 1.18794,15.813518 -0.75858,19.564254 -0.73354,1.413479 -3.02401,4.260261 -5.08994,6.32618 -2.0659,2.065921 -3.47534,4.029617 -3.13205,4.363772 0.58904,0.57336 58.54754,7.320474 77.30458,8.999246 4.77838,0.427668 14.21232,0.77874 20.96437,0.78016 6.75203,0.0013 12.27641,0.188819 12.27641,0.416441 0,0.227624 -0.51297,4.902111 -1.13995,10.387746 -0.62696,5.485633 -1.42996,14.828099 -1.78443,20.761041 -0.35448,5.932933 -0.81305,10.955696 -1.01906,11.161691 -0.20598,0.205996 -3.56752,-0.208586 -7.47008,-0.921291 -4.85789,-0.88718 -11.26483,-1.309935 -20.31632,-1.340562 -15.35909,-0.05198 -17.78216,0.595471 -27.87122,7.447013 -6.94148,4.714016 -10.83301,9.968436 -12.61763,17.036536 -1.52766,6.05039 -1.05969,10.67626 1.61368,15.95193 5.57818,11.00798 17.97198,17.27651 34.20914,17.30226 8.2362,0.0131 15.16813,-1.96235 24.18813,-6.89292 3.05022,-1.66733 5.69313,-2.88426 5.87309,-2.70428 0.92098,0.92097 2.68569,12.72501 4.42945,29.62837 1.96125,19.01138 4.18054,32.01974 7.60438,44.57286 1.01995,3.73959 1.85471,7.2242 1.855,7.74359 0,1.38418 -2.98268,1.24117 -35.03867,-1.67951 -31.50952,-2.87088 -48.63422,-4.00013 -65.47771,-4.31778 l -10.99343,-0.20733 -3.86906,2.48276 c -6.43975,4.13238 -6.4379,4.25142 0.11434,7.40525 10.35429,4.98389 15.95034,11.71953 16.83175,20.2593 0.43115,4.17747 -1.15465,8.52222 -4.07411,11.16234 -3.05873,2.76602 -17.71041,5.13576 -31.56907,5.10593 -7.03789,-0.0152 -9.014,-0.29917 -12.73966,-1.83104 z m 3.41386,-90.12976 3.3668,-9.63227 16.56811,-0.19403 16.56807,-0.19404 3.443,9.63744 3.44298,9.63743 5.90183,0.22228 c 5.82372,0.21932 5.89598,0.19932 5.46041,-1.51095 -0.24278,-0.95327 -6.69465,-18.2214 -14.33749,-38.37362 l -13.89608,-36.6404 -6.43666,-0.21694 c -5.60095,-0.18878 -6.50517,-0.0416 -6.96412,1.13321 -7.20732,18.44981 -28.36369,74.35142 -28.36369,74.9456 0,0.51836 2.17844,0.81856 5.94001,0.81856 h 5.94004 z"
       id="path3918"
       inkscape:connector-curvature="0" />
    <path
       style="fill:#0066ff;stroke-width:79.20378053;stroke:#0066ff;stroke-opacity:1;stroke-miterlimit:4;stroke-dasharray:none"
       d="m -912.68136,1046.4937 c -21.64992,-7.7894 -34.85966,-19.1238 -42.99297,-36.8893 -15.63303,-34.147 -20.13946,-106.03243 -7.69995,-122.82714 8.2162,-11.09278 17.63375,-15.09846 40.33192,-17.15495 15.74017,-1.42608 21.17451,-3.28903 28.73543,-9.8508 5.12834,-4.45063 13.48548,-10.2794 18.57143,-12.95277 l 9.24714,-4.86068 -10,-2.13863 c -12.88834,-2.75635 -207.53294,-21.38689 -267.14284,-25.56977 -46.2334,-3.24423 -84.7946,-2.76503 -93.1163,1.15717 -3.705,1.74625 -5.6622,-1.71009 -10.5907,-18.70323 -19.5882,-67.538 -26.4338,-107.19637 -33.4355,-193.70246 -3.887,-48.02346 -6.5693,-66.43143 -14.8841,-102.14286 -1.0905,-4.68374 -3.5389,-6.41154 -9.0208,-6.36582 -11.4891,0.0957 -31.9502,10.44 -44.6669,22.58157 -36.4254,34.77785 -125.9528,28.28017 -169.3248,-12.2892 -20.1374,-18.8362 -27.8467,-35.63583 -27.6968,-60.35512 0.1012,-16.6708 1.6117,-22.8892 9.0743,-37.35674 13.0197,-25.24092 24.3369,-32.83916 51.6985,-34.70984 47.1925,-3.22651 125.0468,9.1252 146.3414,23.21731 l 10.2267,6.76773 16.9832,-6.83465 c 24.226,-9.74938 26.9818,-14.04947 26.9901,-42.11462 0.01,-33.49238 4.9333,-94.18265 11.3892,-140.39776 4.6528,-33.30774 11.8361,-61.47959 24.1827,-94.84138 0.9345,-2.52526 6.3177,-1.96427 20.6992,2.15711 39.7309,11.38583 90.4934,18.85179 192.7634,28.35095 59.82324,5.55656 82.6741,9.86397 83.1845,15.68038 0.134,1.52659 -9.19212,10.53636 -20.72463,20.02172 -56.84357,46.75319 -68.36907,105.17949 -27.67867,140.31188 37.40738,32.29782 109.8553,49.2082 157.57201,36.77957 21.425,-5.5805 65.80789,-29.48239 77.71589,-41.85297 12.08257,-12.55196 15.17522,-21.70598 15.17522,-44.9174 0,-28.40621 -13.54334,-63.87881 -35.24211,-92.30572 l -9.90129,-12.97139 12.97049,-1.77781 c 7.13374,-0.97778 30.4696,-1.80135 51.8574,-1.83014 42.79486,-0.0576 81.30169,-4.6925 129.85629,-15.63025 34.28508,-7.72329 46.26605,-8.79063 49.00102,-4.36533 3.10926,5.03086 7.11515,51.6484 9.70203,112.90507 2.28372,54.07732 3.31732,62.35373 10.47097,83.84461 9.04289,27.16645 18.06418,42.0549 25.12355,41.46312 8.08263,-0.67756 35.21708,-20.96263 47.45537,-35.47652 14.21608,-16.85944 25.51323,-20.97878 52.66877,-19.20496 25.50989,1.66634 40.44523,9.03861 62.02091,30.61429 34.24043,34.24044 50.46429,89.11877 42.75215,144.61217 -5.90326,42.47752 -31.73869,81.89572 -59.70543,91.09512 -17.36126,5.71082 -48.46923,10.06745 -72.39209,10.13842 l -19.07628,0.0566 -7.50697,-16.42858 c -10.20932,-22.3424 -22.7852,-34.99997 -34.77409,-34.99997 -9.4842,0 -39.79234,18.56137 -44.73777,27.39837 -3.45857,6.18009 0.36428,20.11503 8.01148,29.2032 5.77649,6.86498 23.9234,16.88 39.09692,21.57706 6.3632,1.96977 25.75708,61.71046 33.51851,103.24994 3.22975,17.28572 7.84772,51.35715 10.26217,75.71429 2.41446,24.35714 5.07446,47.65631 5.91112,51.77597 l 1.52117,7.49023 -32.28929,-10.92194 c -51.044,-17.2658 -98.1292,-23.62183 -200.86071,-27.11429 -66.50283,-2.2608 -75.12289,-0.78566 -91.11577,15.59254 -10.70072,10.95852 -11.68117,17.4632 -2.63226,17.4632 9.48026,0 55.34577,27.04286 69.14203,40.76698 25.15226,25.02074 32.44406,52.76005 20.40591,77.6276 -7.12877,14.72602 -34.98142,41.08792 -45.79451,43.34342 -3.93154,0.8201 -15.5054,3.9769 -25.71969,7.0152 -27.1182,8.0665 -67.48514,13.7999 -109.87997,15.6064 -31.80971,1.3554 -39.42354,0.8104 -52.02731,-3.7242 z m 73.3754,-380.29496 c 36.86103,-7.92546 62.65666,-23.29048 78.96474,-47.035 13.847,-20.1612 18.63237,-38.53183 20.23606,-77.68463 3.1304,-76.42725 -22.06146,-117.09205 -84.95463,-137.13403 -12.33303,-3.93014 -29.393,-5.29494 -79.28571,-6.34294 l -63.57143,-1.33531 v 137.83951 137.83952 l 57.85714,-1.68709 c 31.82143,-0.92791 63.66066,-2.93491 70.75383,-4.46003 z"
       id="path3910"
       inkscape:connector-curvature="0"
       transform="scale(0.26458333)" />
    <path
       style="fill:#003380;stroke-width:0.26458332"
       id="path3888"
       d="m -543.3805,36.680102 c 6.53338,0.410695 13.07034,0.79796 19.60946,1.119363 6.67422,0.288044 13.35416,0.412789 20.03425,0.422716 3.17286,-0.200667 6.33796,-0.450495 9.48648,-0.892206 3.47339,-0.634072 6.98566,-1.02153 10.50943,-1.215552 2.22076,-0.250147 4.49916,0.06291 6.71703,-0.172283 3.4812,-0.369168 11.01731,-5.558002 -7.93438,4.690284 -0.0485,-0.205205 -0.0408,-0.432651 -0.14567,-0.615616 -1.26236,-2.202995 -3.32389,-4.072125 -5.12972,-5.795923 -1.81015,-1.727935 -3.66305,-3.410566 -5.48349,-5.127654 -3.98317,-3.607791 -7.80325,-7.530076 -10.23723,-12.387538 -0.42201,-0.842197 -0.73388,-1.735207 -1.10083,-2.60281 -1.37591,-4.3030419 -2.20215,-8.8455006 -1.67923,-13.37124535 0.10697,-0.9258372 0.31581,-1.83704415 0.47371,-2.75556625 0.9756,-3.7422918 2.76376,-7.2295627 5.26156,-10.1893194 1.44642,-1.713934 2.28081,-2.330813 3.9575,-3.794227 6.70791,-4.799839 13.80721,-9.495155 21.84956,-11.593265 2.15392,-0.379008 4.4428,-0.918843 6.64784,-0.605359 0.69464,0.09876 2.97492,0.774689 3.6439,0.965674 3.7982,1.0599 7.13128,3.146627 10.29885,5.432569 3.3456,2.416615 6.38593,5.231276 9.22099,8.222875 2.65991,2.662085 4.60187,5.8483475 6.37728,9.1325889 1.80173,3.98059904 2.8602,8.2515894 3.68462,12.5281267 0.66794,3.6240664 0.72509,7.3116734 0.78994,10.9836394 -0.24601,3.432115 -1.34491,6.701034 -2.6171,9.87113 -0.84712,2.045597 -2.46436,3.545719 -4.14063,4.921748 -4.36184,2.958473 -8.70982,5.463296 -13.50494,7.359102 0.63863,-1.105413 -1.33294,0.645604 -1.0264,0.435467 3.18014,-2.180053 6.17048,-4.655214 9.50296,-6.594414 0.45382,-0.264078 1.04826,0.07618 1.56779,0.152228 2.593,0.379595 5.17396,0.838301 7.76632,1.222333 15.37165,2.012293 30.79107,3.629451 46.16815,5.596001 12.81837,1.705197 25.73086,2.484228 38.6467,2.924204 5.31533,0.08554 10.62662,-0.05538 15.87672,-0.919319 2.44729,-0.371163 2.38776,1.210001 2.14347,3.086142 -0.51715,5.979719 -1.64949,11.878964 -2.38437,17.836454 -1.05534,9.696336 -1.61237,19.432188 -1.88444,29.178967 -0.11427,8.559843 0.361,7.633763 -11.23527,11.838053 -0.53141,0.19267 -0.89717,-0.68911 -1.36615,-1.00472 -0.63859,-0.42977 -1.30296,-0.81999 -1.95445,-1.22999 -0.98348,-0.44765 -1.93828,-0.96463 -2.95045,-1.34295 -8.15514,-3.04816 -17.54481,-3.600827 -26.15001,-4.248275 -5.48185,-0.286422 -11.11268,-0.375542 -16.45216,1.154266 -1.65807,0.475051 -5.01338,3.615539 -4.81185,1.902579 0.21278,-1.808464 3.46734,-3.612319 4.87747,-2.46021 1.29373,1.057026 -2.34083,2.38431 -3.51124,3.57646 -3.49186,4.78755 -6.28689,10.46538 -6.03599,16.56857 0.1442,3.5083 0.88942,4.51354 2.20546,7.69615 0.67069,1.12929 1.2491,2.31878 2.01213,3.38788 3.01802,4.22873 7.62265,7.53403 12.30048,9.70232 1.12855,0.52311 2.32106,0.89545 3.48157,1.34317 4.3393,1.38511 8.8864,2.12978 13.44486,2.15276 1.86838,0.009 3.88313,-0.17635 5.74712,-0.31565 4.73498,-0.31489 9.0951,-2.1429 13.41773,-3.94674 3.36582,-1.92589 11.18119,-5.71922 -4.32821,2.49818 -0.5411,0.2867 1.00227,-0.70425 1.49072,-1.07357 1.06179,-0.80287 1.56064,-1.25471 2.55793,-2.10828 3.97632,-4.18904 5.72524,-5.68947 13.42726,-7.40003 0.74692,-0.16588 0.70202,1.3632 0.97531,2.07784 0.35139,0.91888 0.5965,1.87494 0.89477,2.8124 2.63083,9.74687 2.8716,19.89781 3.5728,29.90798 0.77261,11.06341 2.55357,22.0168 5.11892,32.79665 1.49905,6.36883 3.19119,12.67014 5.24431,18.88076 0.71225,2.06798 1.31969,4.16537 1.55231,6.34389 0.44876,5.18935 -2.03388,3.83267 -10.45165,7.63612 -0.63876,0.28862 -1.38573,-0.21376 -2.08164,-0.29777 -1.04135,-0.12572 -2.08619,-0.22088 -3.12928,-0.33131 -12.4579,-0.79789 -24.8802,-1.97618 -37.30069,-3.21619 -13.12839,-1.30248 -26.25889,-2.60662 -39.4222,-3.50303 -10.02086,-0.62728 -20.06135,-0.83155 -30.09974,-0.86264 -2.93074,0.0341 -5.86254,-0.0225 -8.79309,0.0383 -0.4177,0.009 -1.59657,0.28951 -1.25232,0.0528 9.69907,-6.66957 6.40895,-7.1988 12.03145,-5.23356 7.32919,3.01533 13.84228,7.49858 17.48414,14.79541 0.81426,1.63141 1.25489,3.4239 1.88235,5.13585 0.52742,3.5688 1.3385,6.07089 0.21773,9.63446 -3.19278,10.15166 -16.68939,14.41518 -24.61041,18.35355 -10.38791,2.83853 -21.14431,3.98751 -31.88753,4.11684 -4.07408,-0.15532 -8.15019,-0.93745 -11.95308,-2.43475 -1.5199,-0.59844 -2.57767,-1.22076 -3.99883,-1.98777 -3.22768,-2.01547 -4.6573,-4.47959 -5.80665,-8.00374 -0.89776,-3.85585 -0.79817,-7.85826 -0.85543,-11.79397 -0.18139,-3.39595 0.0124,-6.57584 0.92245,-9.84907 0.95721,-3.12141 1.84594,-4.76228 4.53207,-6.67716 5.09342,-4.53896 8.84219,-5.22157 13.95137,-7.34729 0.4435,-0.18451 0.88824,-0.36825 1.31697,-0.58484 0.4309,-0.21768 1.67944,-0.95322 1.25875,-0.71637 -2.77312,1.56131 -5.54405,3.1265 -8.31606,4.68975 0.29392,-0.21396 2.50219,-1.82404 2.12251,-2.21961 -0.54102,-0.56363 -6.56201,-2.13051 -7.11994,-2.28526 -9.29777,-2.26365 -18.89987,-2.5746 -28.41746,-2.89884 -9.41652,-0.0383 -18.86024,-0.44993 -28.27084,0.0469 -3.87606,0.30872 -7.72096,1.00431 -11.55022,1.67381 -1.10525,-0.0298 -3.22379,0.90698 -4.27456,0.0161 -1.49815,-1.27021 -0.29345,-3.82776 0.11404,-5.1795 3.23559,-9.2984 5.72696,-18.81617 7.71493,-28.45165 0.67249,-4.21433 1.52421,-8.39812 2.22554,-12.60732 0.14976,-0.89862 0.33885,-1.794 0.40846,-2.70234 0.11452,-1.49412 0.27141,-1.29255 -0.58816,-1.49102 -0.40749,0.25043 -0.78058,0.56831 -1.22248,0.75129 -5.56292,2.30345 -12.47225,2.2702 -18.28173,1.38538 -2.69529,-0.41051 -5.32892,-1.15541 -7.99341,-1.73311 -8.10006,-2.44187 -16.12074,-5.32704 -23.5762,-9.37425 -3.87361,-2.10279 -8.01717,-4.74278 -11.19288,-7.86311 -1.46452,-1.43897 -2.63509,-3.14928 -3.95264,-4.72392 -1.01004,-1.66266 -2.1309,-3.26285 -3.03011,-4.98797 -2.47888,-4.75566 -5.19044,-12.46454 -5.01407,-17.9334 0.0382,-1.18514 0.34899,-2.34569 0.52348,-3.51854 0.41315,-1.06437 0.713,-2.17999 1.23947,-3.19312 4.20745,-8.09673 14.493,-12.06465 21.76023,-16.02828 6.59966,-1.57832 13.91957,-2.510688 20.71452,-2.165185 1.30545,0.06638 2.60239,0.249015 3.90358,0.373515 7.07001,0.78118 13.42284,3.36036 19.59102,6.75787 4.83021,2.51077 8.33845,6.37569 11.21024,10.90267 1.70521,3.06827 3.52364,6.07422 5.00645,9.25886 0.55215,1.3385 1.34307,2.54922 2.07496,3.79004 0.18886,0.3202 0.3491,0.65717 0.54645,0.9722 0.0535,0.0854 0.29498,0.18282 0.20304,0.22412 -3.25051,1.45984 -6.57722,2.7437 -9.86584,4.11555 -0.12295,-10.33449 -0.13774,-20.66661 -0.0796,-31.0019 0.10232,-9.93581 0.15026,-19.871665 0.13055,-29.807978 -0.0919,-6.944863 -0.46686,-13.881188 -0.64842,-20.823365 -0.11771,-4.209375 -0.13475,-8.420578 -0.19177,-12.631025 0,0 9.84081,-5.019387 9.84081,-5.019387 v 0 c -0.0212,4.221131 0.009,8.441926 0.0824,12.662524 0.1524,6.974234 0.37515,13.946294 0.52715,20.920348 -0.11393,9.973828 -0.2255,19.947672 -0.34475,29.921413 -0.11636,10.23478 -0.23347,20.48924 0.62666,30.6991 -3.27916,2.21553 -6.49128,4.53368 -9.83747,6.6466 -0.10475,0.0661 -0.0953,-0.22892 -0.15023,-0.33997 -0.15703,-0.31746 -0.31308,-0.63575 -0.48546,-0.94515 -0.80428,-1.44341 -0.67333,-1.02402 -1.47542,-2.56271 -0.22857,-0.43849 -0.42794,-0.89163 -0.6419,-1.33744 -1.47278,-3.1366 -3.16286,-6.16167 -4.84542,-9.18942 -2.75781,-4.37172 -6.13815,-8.09107 -10.80334,-10.49931 -6.14058,-3.30277 -12.25269,-5.73224 -19.26868,-6.43907 -1.27762,-0.10382 -2.55198,-0.26133 -3.83283,-0.31145 -5.2364,-0.20492 -11.74488,0.3516 -16.84613,1.53049 -1.24391,0.28747 -2.45102,0.71589 -3.67651,1.07383 2.14018,-1.34549 4.28799,-2.67894 6.42059,-4.03647 0.89357,-0.56881 -1.83179,1.06833 -2.70341,1.67024 -3.69107,2.54892 -6.84093,5.78452 -8.41722,10.04907 -0.22584,1.10524 -0.59332,2.19079 -0.67754,3.31572 -0.39894,5.32886 2.15659,12.95434 4.53094,17.60681 0.85989,1.68495 1.94175,3.24708 2.91261,4.87062 1.26958,1.52722 2.39961,3.18214 3.80873,4.58165 6.64154,6.59629 17.11859,11.30094 25.82256,14.34876 2.78644,0.97571 5.64418,1.73438 8.46627,2.60157 6.85303,1.29917 8.34089,1.98757 15.10628,1.80966 3.83165,-0.10075 5.58726,-0.60786 9.03015,-1.57461 0.87138,-0.24467 1.70537,-0.63797 2.59736,-0.7914 0.61667,-0.10607 1.25132,0.0145 1.87701,0.0218 0.29591,0.32794 0.74068,0.56731 0.88776,0.98382 0.36097,1.02231 -0.33854,3.80417 -0.4622,4.4428 -0.81995,4.23418 -1.71321,8.45501 -2.40313,12.71378 -2.00041,9.57578 -4.4376,19.03517 -7.32269,28.38407 -0.23559,0.71593 -0.49292,1.42508 -0.70678,2.14781 -0.11391,0.38491 -0.38849,1.23855 -0.15145,1.33696 1.1639,0.48322 2.73558,-0.31886 3.88353,-0.26753 3.83635,-0.65369 7.68011,-1.41832 11.58171,-1.51126 9.30016,-0.16223 18.60674,0.24571 27.90645,0.30203 9.67647,0.21359 19.41946,0.56221 28.86416,2.89519 1.57679,0.42393 9.14482,1.70695 8.3471,4.61186 -0.1456,0.53014 -1.59543,1.66947 -1.92248,1.95127 -3.57701,2.12212 -7.13651,4.27404 -10.73103,6.36636 -1.27778,0.74378 -2.71404,1.19737 -4.07318,1.75977 -0.49411,0.20446 -1.92569,0.92047 -1.47256,0.63652 2.65242,-1.6621 5.38892,-3.18608 8.08336,-4.77912 -0.44119,0.26494 -1.94794,1.14152 -2.34564,1.49141 -1.31045,1.1529 -1.86208,2.89329 -2.48944,4.45584 -0.044,0.14621 -0.7371,2.44294 -0.76686,2.57334 -0.5266,2.30687 -0.35791,4.68513 -0.38624,7.02932 0.0145,3.82667 -0.0356,7.70766 0.76644,11.46775 0.94316,3.07951 2.42438,5.65268 5.29868,7.31024 4.92765,2.6263 9.8007,3.99348 15.42997,4.11497 10.59678,-0.1 21.23316,-1.17999 31.41917,-4.23445 -1.11258,0.99806 -4.7783,2.59578 -3.33775,2.99419 1.61026,0.44534 2.88258,-1.71206 4.18354,-2.76028 2.25872,-1.81991 4.83634,-4.58578 5.88804,-7.37884 1.28839,-3.42173 0.54723,-5.73474 0.12078,-9.2295 -0.58425,-1.64302 -0.97568,-3.36796 -1.75273,-4.92908 -3.51602,-7.06384 -10.23004,-11.4072 -17.4456,-13.96456 -5.70695,-1.85117 -4.00931,-0.54904 6.1182,-7.51477 0.30753,-0.21151 0.74557,0.04 1.11871,0.0479 1.16065,0.0247 4.36166,0.0367 5.36022,0.0483 1.08712,0.0127 2.17411,0.0339 3.26118,0.0509 9.97164,0.17114 19.94508,0.36089 29.89559,1.08993 13.12844,0.98035 26.23293,2.23485 39.32592,3.60797 1.10786,0.11072 13.22572,1.32588 14.33295,1.42027 7.79053,0.66416 15.6042,0.97595 23.406,1.46461 1.07931,0.0704 2.15669,0.18383 3.23797,0.21107 0.66476,0.0168 2.51105,-0.4966 1.99334,-0.0793 -2.67147,2.15341 -5.82202,3.63359 -8.70709,5.49109 -0.0893,0.0575 0.2545,0.009 0.30758,-0.0832 0.17065,-0.29569 -0.21138,-0.74113 -0.0159,-1.02405 -0.13713,-2.12543 -0.64116,-4.18663 -1.27066,-6.21846 -1.88516,-6.32426 -3.52854,-12.69692 -4.90546,-19.15456 -0.75707,-3.23201 -1.71309,-7.13745 -2.30695,-10.39661 -1.36144,-7.47196 -2.11561,-15.05945 -2.75262,-22.62001 -0.76782,-9.86473 -1.10392,-19.87857 -3.8654,-29.4464 -0.31277,-0.87572 -0.58505,-1.76697 -0.93832,-2.62716 -0.19905,-0.48466 -1.11681,-1.06283 -0.71541,-1.39957 2.70947,-2.27306 6.03017,-3.69732 9.02785,-5.57399 0.3003,-0.18799 -0.66138,0.28088 -0.93414,0.50698 -0.11763,0.0975 -1.82808,2.11024 -1.84959,2.13541 -5.53239,4.90733 -12.02137,8.56214 -18.69919,11.70277 -4.37402,1.75537 -8.79208,3.4304 -13.56535,3.61099 -6.55555,0.35616 -13.13048,-0.0144 -19.35557,-2.31283 -1.18554,-0.48772 -2.40551,-0.89893 -3.5566,-1.46316 -4.77716,-2.34161 -9.49508,-5.81878 -12.57552,-10.20229 -0.78346,-1.11487 -1.37776,-2.35132 -2.06663,-3.52699 -1.36991,-3.2474 -2.24777,-4.54842 -2.45317,-8.14236 -0.0796,-1.39294 0.0953,-2.79541 0.3083,-4.17426 0.74647,-4.83174 2.69287,-9.15455 5.54749,-13.1063 1.138,-1.27334 2.0148,-2.84092 3.41402,-3.82002 4.85841,-3.399619 11.85043,-8.036312 18.30594,-9.676202 5.40769,-1.373709 11.054,-1.268426 16.56858,-0.908381 10.01948,0.800003 20.53614,1.463694 29.78121,5.731939 0.68739,0.393909 1.36602,0.803542 2.06219,1.181724 0.38052,0.206706 1.50257,0.299215 1.16636,0.572117 -2.69653,2.188653 -5.8538,3.738773 -8.7807,5.608163 0.24712,-0.22187 0.6192,-0.35678 0.74139,-0.6656 0.43069,-1.0884 0.48511,-4.758019 0.52102,-5.471227 0.45995,-9.760932 0.88857,-19.526565 1.84589,-29.255034 0.49109,-4.403612 0.41151,-3.958424 0.99973,-8.221131 0.12676,-0.91861 0.71874,-4.822634 0.82402,-6.004438 0.1008,-1.131478 0.0313,-2.27356 0.14136,-3.404944 0.0148,-0.138197 0.0983,-1.146985 0.19386,-1.40561 0.0225,-0.06085 0.0861,-0.101158 0.14333,-0.131641 0.15203,-0.08093 -1.42404,0.225444 -1.35086,0.15816 -5.18911,0.642655 -10.41559,0.660273 -15.63772,0.492271 -12.82174,-0.647227 -25.64035,-1.578613 -38.37575,-3.228348 -15.46736,-2.005105 -30.96014,-3.842213 -46.4811,-5.380522 -4.98758,-0.593267 -3.84633,-0.461248 -8.09461,-0.955267 -0.60452,-0.0703 -2.23546,0.228997 -1.81372,-0.209796 8.24037,-8.57341 5.30045,-5.513665 9.65229,-7.18698 3.93454,-1.783075 11.05747,-5.220711 -5.75789,3.743576 1.74877,-1.116849 3.38868,-2.60449 4.44799,-4.394404 1.35335,-3.025645 2.44219,-6.18051 2.87124,-9.481831 -0.0366,-3.616827 -0.11208,-7.247281 -0.68395,-10.82682 -0.74531,-4.1720161 -1.71535,-8.3633034 -3.53909,-12.2093773 -1.75139,-3.1875995 -3.58543,-6.325637 -6.21374,-8.8938103 -2.79176,-2.9340364 -5.77096,-5.7198274 -9.09617,-8.0452114 -3.12756,-2.164603 -6.37053,-4.158155 -10.10227,-5.096188 -1.22742,-0.31293 -2.22998,-0.630422 -3.49972,-0.716068 -2.16334,-0.14592 -4.34538,0.373835 -6.43726,0.833407 -1.68465,0.504783 -2.05576,0.568008 -3.71702,1.271071 -0.69488,0.294076 -2.68857,1.358995 -2.05492,0.949354 14.28353,-9.233935 6.01634,-3.394384 2.872,-1.492012 -1.58562,1.291395 -2.66914,2.080371 -4.06304,3.593361 -2.54937,2.767132 -4.37894,6.114124 -5.4668,9.7040547 -0.17536,0.8807339 -0.40217,1.7527672 -0.52604,2.6422019 -0.60619,4.35243453 0.17211,8.7607338 1.43592,12.9234135 0.34168,0.8293624 0.6323,1.6816349 1.02502,2.4880869 2.32865,4.782156 6.10579,8.601855 9.95143,12.181683 0.93763,0.87293 1.87523,1.745861 2.81286,2.618791 0.91221,0.829239 1.83253,1.649601 2.73656,2.487716 1.94776,1.80572 4.23164,3.753583 5.63073,6.065094 0.30401,0.502285 0.46694,1.07741 0.70041,1.616117 -3.36762,2.059911 -6.6484,4.269079 -10.10288,6.179735 -0.37838,0.209273 -0.85955,0.100539 -1.29138,0.122349 -2.21133,0.111681 -4.43682,-0.01963 -6.64562,0.189214 -3.5193,0.252743 -7.01905,0.682818 -10.49427,1.29911 -3.15876,0.394628 -6.33878,0.668141 -9.52278,0.718081 -6.6009,-0.176802 -13.20263,-0.343662 -19.7997,-0.634865 -6.65286,-0.282781 -13.30097,-0.728458 -19.96093,-0.803209 0,0 9.07336,-6.592173 9.07336,-6.592173 z"
       inkscape:connector-curvature="0" />
    <path
       style="fill:#0044aa;stroke-width:0.26458332"
       id="path3890"
       d="m -345.64542,49.662564 c 1.86357,-5.277856 3.91949,-10.494177 5.41168,-15.89282 0.54571,-1.770216 0.58584,-3.703981 1.24037,-5.446527 1.52725,-4.066045 9.7509,-6.151885 11.18579,-6.7422 0.55602,-0.228755 1.11659,0.446346 1.67489,0.669518 7.62087,2.728223 15.45622,4.98054 23.40734,6.525995 3.18969,0.619974 6.40983,1.071359 9.61475,1.60704 10.141,1.511805 20.36342,2.307489 30.58166,3.059104 4.00977,0.294942 9.99268,0.595138 14.12485,1.283851 1.35982,0.226642 2.67805,0.655714 4.01707,0.983573 0.68616,0.458361 1.54801,0.726755 2.05846,1.37509 2.15071,2.731656 -2.71278,6.166966 -4.31894,7.472007 -0.90032,0.731536 -1.81704,1.442665 -2.72555,2.163998 -3.6667,3.080018 -6.91523,6.629128 -9.13569,10.903077 -1.15317,2.219616 -1.35498,3.115752 -2.125,5.43034 -0.20089,0.865172 -0.49119,1.714349 -0.60267,2.595515 -0.43957,3.474654 0.41369,7.456924 2.34415,10.397014 0.52098,0.793453 1.20405,1.467717 1.80608,2.201579 4.20183,4.331724 9.50582,7.324273 15.22253,9.184357 1.26075,0.41022 2.55509,0.708927 3.83263,1.063389 6.02959,1.298962 12.26806,2.169737 18.43764,1.404895 1.15661,-0.143385 2.29217,-0.423256 3.43826,-0.634886 3.05025,-0.881705 3.47834,-0.867381 6.3667,-2.263304 0.97698,-0.472167 3.80118,-2.095209 2.853,-1.567579 -11.77798,6.55407 -7.70205,4.900715 -5.11516,2.229469 0.50722,-0.523767 0.91446,-1.13587 1.37169,-1.703806 2.62636,-4.231457 2.46423,-8.682177 1.73537,-13.425511 -0.96192,-4.134244 -2.58137,-8.130709 -4.52456,-11.899233 -1.86535,-3.48737 -4.10733,-6.743332 -6.77063,-9.66362 -1.53191,-1.729669 -3.3125,-3.172815 -5.11376,-4.602695 -0.13488,-0.111056 -1.25665,-1.001881 -1.38232,-1.2218 -0.15001,-0.262517 -0.4831,-0.720133 -0.22558,-0.878571 3.75482,-2.310156 7.59786,-4.548277 11.6943,-6.177581 1.29201,-0.513876 2.77923,-0.0977 4.16926,-0.131927 1.85987,-0.0458 3.72017,-0.0721 5.58025,-0.108148 12.18371,-0.296683 24.44153,0.293706 36.56559,-1.25825 2.33317,-0.298662 4.64156,-0.766519 6.96233,-1.149778 5.50044,-0.874583 10.87519,-2.305807 16.26662,-3.660683 0.63325,-0.159136 5.04597,-1.252167 6.10002,-1.274408 0.61779,-0.01304 1.2128,0.237575 1.8192,0.356365 0.41511,0.431133 0.91178,0.796472 1.24532,1.293402 1.39962,2.085234 1.34465,5.112195 1.56268,7.478453 0.30259,3.284056 0.36786,4.254397 0.62961,7.573764 0.66625,8.517673 0.50295,17.067964 0.96711,25.593498 0.3302,4.746426 1.10735,9.457494 2.77296,13.928558 0.85543,2.296255 1.30256,3.056186 2.36604,5.178599 0.23924,0.421511 1.35208,2.549906 1.91609,3.035605 0.13573,0.11689 0.35771,0.01992 0.53656,0.02989 -2.97939,1.459939 -5.81797,3.25178 -8.93818,4.379817 -0.70867,0.256204 1.02109,-1.109527 1.50052,-1.690909 0.58534,-0.709809 1.12804,-1.453722 1.69207,-2.18058 2.29659,-2.8601 5.00902,-5.170323 8.21549,-6.953689 5.91784,-3.291361 10.43077,-6.628482 16.67603,-8.069 1.30931,-0.302001 2.65443,-0.419539 3.98165,-0.629309 3.309551,0.155885 4.974277,0.01696 8.167486,1.026972 4.289586,1.35681 8.109212,3.920286 11.388865,6.944776 1.041836,0.960781 1.978321,2.029867 2.967482,3.044801 5.271825,5.779545 7.650623,11.534099 9.54379,18.971279 1.251247,5.86701 1.566538,11.85919 1.071976,17.82409 -0.489977,4.41452 -1.461373,8.77408 -3.327347,12.82333 -1.173957,2.54754 -1.787811,3.3472 -3.279011,5.70624 -1.808644,2.19747 -2.495579,3.19873 -4.616865,5.11119 -0.969846,0.87438 -4.349843,3.48799 -5.478441,4.16416 -11.554111,6.92235 -8.581956,5.51122 -15.862865,8.57544 -6.65315,2.34135 -13.73343,2.81596 -20.72188,3.12983 -3.37192,0.0828 -6.8524,0.29312 -10.09603,-0.82127 -1.58275,-0.54378 -2.41308,-1.06868 -3.86007,-1.8539 -3.24165,-1.92825 -4.81013,-3.39013 -5.95375,-6.99913 -0.13393,-0.84509 -0.33878,-1.679 -0.21301,-2.54416 0.084,-0.57748 0.44209,-1.62593 0.99932,-1.96824 10.38766,-6.3812 6.66371,-6.36457 12.17253,-5.97064 0.53129,0.23191 1.10956,0.37715 1.59387,0.69573 3.68937,2.42684 5.9805,8.38192 7.70544,12.24825 2.42053,5.83695 4.44328,11.84128 6.28743,17.88368 1.6857,6.0235 2.83117,12.17416 3.79358,18.34864 0.73144,4.71722 1.22606,9.46234 1.76409,14.20334 0.3653,4.58964 0.81001,9.14825 1.49145,13.70326 0.53951,3.37788 0.77667,6.7915 0.93675,10.20514 0.39968,6.73726 -1.70154,4.66623 -10.48506,9.33093 -1.60785,-1.26158 -2.92683,-2.79694 -4.65264,-3.92122 -2.31413,-1.50753 -3.81557,-2.14173 -6.37679,-3.41023 -8.52308,-3.80639 -17.68762,-6.10924 -26.91985,-7.38296 -2.33166,-0.32168 -4.67732,-0.53208 -7.01597,-0.79812 -11.80094,-1.01922 -23.66186,-1.47282 -35.50531,-1.2369 -1.93939,0.0753 -4.67887,0.15669 -6.6802,0.31696 -0.53584,0.0429 -2.05299,0.48211 -1.60137,0.19055 3.22873,-2.08445 6.40859,-4.42399 10.05216,-5.64631 0.96592,-0.32404 1.8268,0.90268 2.73971,1.35499 1.33442,0.66116 2.66819,1.32362 4.00229,1.98543 6.01111,3.22431 12.11576,6.76967 16.17748,12.41456 2.59213,3.60248 2.54301,4.30794 4.0198,8.36215 0.12293,1.46664 0.47272,2.93181 0.3688,4.39992 -0.51999,7.3457 -6.25498,13.24573 -11.87731,17.33938 -1.73224,1.26124 -3.63452,2.27068 -5.45178,3.40601 -5.07948,2.61784 -10.01686,5.53201 -15.23843,7.85355 -3.27192,1.45468 -11.29418,2.98643 -14.68492,3.54891 -6.93325,1.15017 -13.94542,1.72053 -20.94355,2.28734 -7.15095,0.75124 -14.27748,-0.17168 -20.36293,-4.28796 -0.86156,-0.58278 -1.60508,-1.3234 -2.40762,-1.98509 -4.57834,-4.78968 -5.86013,-11.26755 -7.0212,-17.55733 -0.72234,-5.39971 -1.30723,-10.87981 -1.0296,-16.3323 0.58528,-5.48891 3.50832,-8.42897 7.75442,-11.54169 5.26832,-2.91949 10.50178,-6.69226 16.35913,-8.61976 2.01654,-0.6636 4.09861,-1.02976 6.18877,-1.35632 2.03441,-0.30987 4.09167,-0.33575 6.14338,-0.39169 0.27148,-0.007 1.04617,-0.17222 0.81416,-0.0311 -3.60423,2.19285 -7.34235,4.15764 -11.01352,6.23647 -9.81876,-1.78802 -19.78967,-2.32388 -29.70434,-3.2957 -15.13996,-1.87843 -30.33721,-3.19589 -45.56652,-4.06071 -1.78826,-0.0775 -10.05533,-0.45832 -12.06857,-0.46125 -1.77887,-0.003 -3.55597,0.11349 -5.33394,0.17023 0,0 8.56662,-6.25578 8.56662,-6.25578 v 0 c 5.76347,-0.0952 11.5044,0.0462 17.25517,0.5071 15.25209,0.97666 30.47061,2.38132 45.66449,4.03065 10.09025,0.86478 20.195,1.55076 30.22858,2.98025 -2.36842,2.25492 -4.62707,4.63107 -7.10526,6.76476 -0.18769,0.16161 -0.49534,-0.0112 -0.74299,-0.008 -2.00385,0.03 -4.00776,0.17115 -5.98959,0.47452 -2.04486,0.37078 -4.03839,0.79376 -6.00027,1.50155 -3.4809,1.25582 -11.72801,5.86572 2.52094,-2.2134 -1.24819,0.84399 -2.96373,1.92242 -4.06543,2.98097 -2.127,2.0437 -3.69117,4.70375 -4.03758,7.64371 -0.45296,5.3801 0.12875,10.81416 0.78619,16.15561 1.05778,6.05216 2.23904,12.28577 6.6556,16.87917 0.75408,0.61577 1.45406,1.30448 2.26225,1.8473 5.82506,3.91223 12.89953,4.60367 19.71158,3.97856 6.91732,-0.49197 13.82821,-1.03052 20.66705,-2.2425 2.56266,-0.45416 5.12026,-0.95888 7.6395,-1.61224 2.37095,-0.61489 4.56758,-2.29211 7.01476,-2.18826 1.19073,0.0505 -1.78328,1.58162 -2.67492,2.37244 1.82273,-1.08281 3.72685,-2.03907 5.46819,-3.24845 5.4286,-3.77016 11.31448,-9.34272 12.07315,-16.32329 0.14968,-1.37717 -0.14249,-2.7669 -0.21373,-4.15035 -1.35318,-3.92143 -1.27144,-4.5785 -3.76962,-8.05729 -3.98028,-5.5427 -10.01781,-8.98439 -15.98051,-12.00434 -1.38172,-0.62821 -2.76164,-1.2604 -4.14516,-1.88462 -1.03783,-0.46824 -3.72547,-0.42926 -3.11885,-1.39276 5.28408,-8.39284 9.00887,-6.94747 16.37155,-7.15352 11.7744,-0.0295 23.55614,0.50027 35.28285,1.55785 2.3676,0.26655 4.74218,0.47711 7.1028,0.79966 9.37898,1.28154 18.69004,3.64038 27.3683,7.44863 2.68612,1.27429 4.2565,1.90881 6.69792,3.4368 2.0605,1.28959 1.52983,1.12083 3.09676,2.42049 0.91151,0.75602 0.63067,0.60209 1.44003,0.86768 -3.12349,1.83752 -6.25759,3.65712 -9.37045,5.51258 -0.39082,0.23295 0.38212,0.0915 0.62555,-0.54471 0.32209,-0.84174 0.0196,-1.79698 0.11302,-2.66099 -0.0854,-3.39576 -0.28507,-6.78947 -0.77827,-10.15363 -0.63338,-4.5661 -1.15705,-9.12931 -1.5222,-13.72474 -0.53812,-4.74212 -0.92689,-9.50103 -1.63294,-14.22452 -0.9167,-6.13372 -2.01679,-12.23857 -3.71681,-18.21085 -1.82658,-6.00336 -3.78084,-11.98828 -6.16073,-17.79582 -1.50499,-3.31691 -3.98361,-9.62112 -7.45865,-11.35017 -0.42002,-0.20899 -0.91133,-0.22327 -1.367,-0.33491 -4.53402,0.85014 -1.59986,0.45492 7.18387,-4.85701 0.27503,-0.16632 -0.59139,0.27217 -0.83568,0.48104 -0.89923,0.7688 -0.6568,1.87694 -0.5363,2.90987 0.96813,3.3393 2.46582,4.53521 5.42775,6.29505 1.44727,0.75131 2.08924,1.16796 3.68245,1.64357 3.17766,0.9486 6.55545,0.68394 9.82044,0.63237 6.91124,-0.31496 13.90791,-0.86762 20.418773,-3.39921 1.09846,-0.49552 4.246409,-2.22663 3.29538,-1.48657 -1.854589,1.4432 -3.957336,2.54877 -6.045515,3.62665 -1.013182,0.52299 1.882312,-1.28771 2.806899,-1.95493 2.497928,-1.80262 3.058747,-2.1769 5.194839,-4.40187 0.778333,-0.81072 1.487353,-1.68524 2.23103,-2.52785 1.501884,-2.2557 2.163342,-3.09092 3.365723,-5.53211 1.93431,-3.92722 2.955287,-8.17218 3.446684,-12.5062 0.539282,-5.84941 0.242057,-11.73601 -0.900834,-17.50747 -1.753675,-7.30168 -4.005763,-12.85954 -9.131673,-18.544713 -0.964092,-0.985512 -1.87556,-2.025412 -2.892272,-2.956542 -5.575932,-5.106577 -11.484684,-7.538204 -19.065584,-7.18009 -1.29866,0.250386 -2.61704,0.414226 -3.89598,0.751157 -1.26895,0.334296 -4.54711,2.285029 -3.73034,1.257954 1.40419,-1.765758 3.87784,-2.325428 5.66949,-3.69643 1.01688,-0.778129 -2.2805,1.180306 -3.33346,1.908857 -0.96288,0.666218 -1.83731,1.456471 -2.69006,2.258843 -0.78111,0.734973 -1.46865,1.563442 -2.20298,2.345161 -0.5393,0.726922 -1.08288,1.450689 -1.6179,2.180765 -0.43884,0.598829 -0.68078,1.40185 -1.30363,1.805863 -10.19671,6.614095 -9.77145,9.174605 -13.39524,2.192859 -3.04203,-6.369561 -4.87561,-12.464958 -5.17422,-19.58408 -0.45342,-8.511058 -0.25475,-17.051218 -0.98451,-25.551971 -0.29679,-3.591941 -0.302,-3.971086 -0.69506,-7.505586 -0.20036,-1.801667 -0.28112,-5.079921 -1.39642,-6.697401 -0.2105,-0.305276 -0.55834,-0.488129 -0.83751,-0.732194 -0.50513,-0.04738 -1.00926,-0.177229 -1.51539,-0.142132 -1.1956,0.08291 -4.96933,0.971217 -5.82473,1.172641 -5.32541,1.253985 -10.64245,2.551653 -16.05778,3.381277 -2.32046,0.35333 -4.63009,0.787088 -6.96138,1.05999 -12.21106,1.42943 -24.54094,0.868124 -36.79912,1.356148 -1.90553,0.08197 -3.81295,0.127736 -5.71658,0.245901 -1.44491,0.08969 -5.04002,1.637239 -4.32664,0.377516 1.48822,-2.627963 4.84349,-3.610171 7.21576,-5.479219 0.079,-0.06223 -0.3404,-0.06157 -0.3001,0.03055 0.08,0.182827 1.25648,1.107094 1.30446,1.146241 1.83869,1.470541 3.60179,3.020462 5.14633,4.80718 2.6422,3.046193 4.90456,6.402991 6.85346,9.932668 2.02701,3.861739 3.62678,8.002193 4.62554,12.248351 0.81583,4.949414 1.14125,9.621149 -1.30667,14.199565 -4.25012,6.03304 -6.36129,5.765863 -14.87934,10.660962 -2.92415,1.68043 -6.10149,2.862863 -9.40382,3.535294 -1.16519,0.176622 -2.3228,0.413866 -3.49559,0.52987 -6.24745,0.617953 -12.53358,-0.303136 -18.60571,-1.730661 -1.29452,-0.380664 -2.60661,-0.706003 -3.88356,-1.141989 -5.86545,-2.002634 -11.33497,-5.094068 -15.64846,-9.583504 -0.64868,-0.79696 -1.38112,-1.532507 -1.94604,-2.390873 -2.03353,-3.089857 -3.04569,-7.386754 -2.70433,-11.061679 0.085,-0.914985 0.38158,-1.797801 0.57237,-2.696702 0.72404,-2.287299 1.00886,-3.470722 2.09037,-5.667859 2.15897,-4.386001 5.34189,-8.073734 8.99333,-11.285035 0.28942,-0.230267 4.5021,-3.578243 4.97389,-3.967067 0.58875,-0.485219 2.32609,-1.829369 2.75299,-2.711852 0.15589,-0.322276 0.30648,-0.773507 0.10427,-1.068935 -0.38285,-0.559356 -1.09979,-0.792639 -1.64968,-1.188956 -1.23387,-0.34503 -2.44349,-0.792985 -3.70161,-1.035089 -3.94436,-0.759027 -9.90651,-1.181675 -13.71532,-1.518124 -10.20935,-0.901838 -20.43287,-1.711907 -30.58573,-3.15015 -3.29623,-0.496078 -6.60601,-0.909204 -9.88869,-1.488234 -8.17878,-1.442654 -16.20838,-3.657976 -24.13538,-6.104615 -4.75339,-0.730104 -2.13084,-0.003 7.13079,-5.621929 0.28244,-0.171351 -0.58007,0.364394 -0.75023,0.647558 -0.86915,1.446444 -0.82153,3.953254 -1.40509,5.493359 -1.45034,5.379231 -3.6313,10.526477 -5.17149,15.88044 0,0 -10.14519,4.731144 -10.14519,4.731144 z"
       inkscape:connector-curvature="0" />
    <path
       style="fill:#ffcc00;stroke-width:2.85714293;fill-opacity:1"
       d="m -1799.3455,570.64947 c 0,-0.77412 39.7814,-109.07473 47.7744,-130.06079 2.1378,-5.61282 6.5758,4.17254 27.3884,60.38904 13.6605,36.89798 24.8372,67.87645 24.8372,68.84104 0,0.9646 -22.5,1.75381 -50,1.75381 -27.5,0 -50,-0.41539 -50,-0.9231 z"
       id="path3914"
       inkscape:connector-curvature="0"
       transform="scale(0.26458333)" />
    <g
       id="g865"
       transform="matrix(1.1488801,0,0,1.1488801,481.61091,-105.398)">
      <path
         inkscape:connector-curvature="0"
         d="m -854.31214,234.30157 c -2.94264,-8.67414 -6.21792,-17.22841 -8.75651,-26.0333 -1.24669,-6.18112 -2.89269,-12.54446 -2.39332,-18.91816 0.26522,-3.38507 0.70184,-3.87885 1.88434,-6.93287 1.66216,-2.91164 4.02383,-5.10955 6.92118,-6.76257 2.09635,-1.19602 9.64512,-6.48882 14.48435,-7.22584 1.01036,-0.15388 2.04192,-0.0924 3.06287,-0.13863 6.17273,0.94971 12.34797,3.21157 16.97366,7.55623 0.92559,0.86936 1.70836,1.87922 2.56254,2.81882 4.69177,6.23623 6.07253,13.80237 6.85924,21.37342 0.5792,6.65609 0.43185,13.34529 0.39926,20.01833 0,3.70402 -0.0662,7.40403 0.17462,11.10095 0,0 -9.67562,5.01328 -9.67562,5.01328 v 0 c -0.26689,-3.74916 -0.0867,-7.49334 -0.0559,-11.25056 0.0318,-6.64371 0.0951,-13.29687 -0.32493,-19.93082 -0.70512,-7.35723 -1.89172,-14.74519 -6.50235,-20.78754 -0.82259,-0.89189 -1.57435,-1.85473 -2.46774,-2.67569 -4.52522,-4.15845 -10.5855,-6.32737 -16.62803,-6.81809 -0.98761,0.11679 -1.99091,0.13964 -2.96281,0.35036 -3.84106,0.83277 -7.02783,3.79795 4.16325,-3.30785 0.86233,-0.54755 -1.80443,0.96779 -2.64269,1.55155 -2.68181,1.8676 -2.56066,2.09067 -4.59298,4.62729 -1.30048,2.85167 -1.79948,3.38308 -2.17924,6.61704 -0.73821,6.2866 0.84566,12.63284 2.09836,18.73041 2.4542,8.72851 5.56678,17.28242 9.26865,25.55815 0,0 -9.67016,5.46609 -9.67016,5.46609 z"
         id="path851"
         style="opacity:1;fill:#0066ff;fill-opacity:1;stroke:#0066ff;stroke-width:12.65600014;stroke-linejoin:round;stroke-miterlimit:4;stroke-dasharray:none;stroke-opacity:1;paint-order:stroke markers fill" />
      <path
         inkscape:connector-curvature="0"
         d="m -879.12501,210.11261 c 10.50079,-2.43261 21.23966,-3.50311 31.9545,-4.46109 10.4391,-0.70149 20.91074,-1.61416 31.38124,-1.26074 5.17427,0.33164 10.27624,1.02872 15.29471,2.32542 3.13573,0.85783 6.36777,1.36976 9.48535,2.28899 0,0 -7.92117,5.4162 -7.92117,5.4162 v 0 c -3.06944,-0.8981 -6.20761,-1.55137 -9.29658,-2.37794 -4.92774,-1.24793 -9.94429,-1.9176 -15.01423,-2.28427 -10.25518,-0.48331 -20.52558,0.24077 -30.75447,0.94637 -10.98917,1.01751 -22.16159,2.03105 -32.72368,5.40898 0,0 7.59433,-6.00192 7.59433,-6.00192 z"
         id="path853"
         style="opacity:1;fill:#0066ff;fill-opacity:1;stroke:#0066ff;stroke-width:10.92218208;stroke-linejoin:round;stroke-miterlimit:4;stroke-dasharray:none;stroke-opacity:1;paint-order:stroke markers fill" />
    </g>
    <path
       style="opacity:1;fill:#000000;fill-opacity:0;stroke:#ffcc00;stroke-width:12.65600014;stroke-linejoin:round;stroke-miterlimit:4;stroke-dasharray:none;stroke-opacity:1;paint-order:stroke markers fill"
       id="path867"
       d="m -254.31296,187.85354 c -3.11875,-13.20117 -5.4297,-26.56933 -8.34996,-39.81319 -1.46103,-6.52128 -3.48461,-12.87188 -6.09737,-19.01799 -0.81386,-1.91448 -2.65663,-5.39032 -3.02631,-7.64407 -0.14391,-0.8773 0.0754,-1.77645 0.11311,-2.66468 5.12138,-4.93446 4.47178,-4.78172 15.54102,-8.43252 1.60798,-0.53033 3.39378,-0.007 5.07629,0.18259 3.85726,0.43537 7.03848,1.30469 10.60135,2.85127 1.66487,0.72269 3.21945,1.67676 4.82915,2.51514 5.61735,3.63265 10.42694,8.29649 13.97921,13.97673 1.98787,3.17868 2.43824,4.43763 3.98891,7.81032 1.98464,4.92366 3.56688,10.0872 4.11075,15.392 0.3084,3.008 0.12965,4.232 -0.029,7.21403 -0.33293,5.34862 -2.55607,10.0804 -6.23716,13.95088 -0.7062,0.74253 -1.50228,1.39402 -2.2534,2.09103 -7.2213,5.40018 -15.06821,10.21035 -23.7376,12.81539 -2.87584,0.71297 -5.83205,1.17395 -8.79345,0.91101 -3.32669,-0.79396 -4.99063,-2.82424 -6.63456,-5.65319 -0.21442,-0.48752 -0.42884,-0.97504 -0.64326,-1.46259 0,0 9.64586,-5.42219 9.64586,-5.42219 v 0 c 0.19193,0.45083 0.38386,0.90165 0.57579,1.35247 1.47532,2.55228 3.01093,4.30737 6.0914,4.69818 2.84734,0.0615 5.68065,-0.34557 8.42086,-1.12479 1.83814,-0.58942 2.49476,-0.75362 4.32689,-1.54858 0.83336,-0.36158 3.22057,-1.66818 2.46248,-1.16766 -2.15516,1.42287 -4.426,2.66305 -6.66819,3.94435 -0.85394,0.488 1.68114,-1.02211 2.50214,-1.56366 0.83164,-0.54856 1.63618,-1.13712 2.45425,-1.70566 0.76613,-0.65328 1.57612,-1.25839 2.29838,-1.95988 3.73343,-3.62598 6.15246,-8.13726 6.61257,-13.35151 0.20352,-2.75749 0.42207,-4.24923 0.18278,-7.03261 -0.44895,-5.22188 -2.008,-10.32103 -3.89694,-15.17764 -1.50845,-3.34653 -1.91019,-4.52101 -3.85472,-7.67641 -3.42601,-5.55939 -8.06143,-10.13003 -13.58164,-13.61479 -1.57591,-0.80074 -3.09563,-1.72333 -4.72774,-2.40222 -3.39711,-1.41306 -6.79259,-2.28435 -10.47078,-2.53022 -1.67939,-0.11226 -5.11317,1.81005 -5.04777,0.12818 0.0866,-2.22627 3.69054,-2.55875 5.20581,-4.19207 0.6591,-0.71047 -1.71524,0.90264 -2.57286,1.35396 -0.15621,0.78842 -0.5234,1.56337 -0.46866,2.36525 0.1564,2.29076 1.9036,5.84242 2.64171,7.75294 2.43554,6.30435 4.35112,12.77275 5.73863,19.39227 2.8009,13.13309 4.95032,26.49963 9.54928,39.16302 0,0 -9.85726,5.29711 -9.85726,5.29711 z"
       inkscape:connector-curvature="0" />
  </g>
</svg>
